<svg xmlns="http://www.w3.org/2000/svg" xmlns:xlink="http://www.w3.org/1999/xlink" xml:space="preserve" width="714" height="401.5" viewBox="0 0 188.913 106.23"><defs><linearGradient id="a"><stop offset="0" stop-color="#ffc94b"/><stop offset="1" stop-color="#ab026c"/></linearGradient><linearGradient xlink:href="#a" id="b" x1="491.54" x2="340.73" y1="313.6" y2="457.63" gradientTransform="translate(110.05 56.115)" gradientUnits="userSpaceOnUse"/></defs><text xml:space="preserve" x="52.307" y="10.852" stroke-width=".312" font-family="Inter" font-size="12.474" font-weight="400" style="line-height:1.25;-inkscape-font-specification:&quot;Inter, @opsz=32,wght=500&quot;;font-variant-ligatures:normal;font-variant-caps:normal;font-variant-numeric:normal;font-variant-east-asian:normal;font-variation-settings:&quot;opsz&quot;32,&quot;wght&quot;500"><tspan x="52.307" y="26.445" style="-inkscape-font-specification:&quot;Inter, @opsz=32,wght=500&quot;;font-variant-ligatures:normal;font-variant-caps:normal;font-variant-numeric:normal;font-variant-east-asian:normal;font-variation-settings:&quot;opsz&quot;32,&quot;wght&quot;500">SCRIBE Hackathon</tspan></text><text xml:space="preserve" x="4.393" y="96.638" fill="#666" stroke-width=".044" font-family="Inter" font-size="3.431" font-weight="400" style="line-height:1.25;-inkscape-font-specification:&quot;Inter, Normal&quot;;font-variant-ligatures:normal;font-variant-caps:normal;font-variant-numeric:normal;font-variant-east-asian:normal"><tspan x="4.393" y="96.638"><tspan x="4.393" y="96.638" style="-inkscape-font-specification:&quot;Inter, Normal&quot;;font-variant-ligatures:normal;font-variant-caps:normal;font-variant-numeric:normal;font-variant-east-asian:normal">Supported and funded by the</tspan></tspan><tspan x="4.393" y="100.927">Jean Golding Institute, University of Bristol </tspan></text><text xml:space="preserve" x="52.946" y="35.808" fill="#f3ab50" stroke-width=".265" font-family="Inter" font-size="8.523" font-weight="400" style="line-height:1.25;-inkscape-font-specification:&quot;Inter, @opsz=32,wght=600&quot;;font-variant-ligatures:normal;font-variant-caps:normal;font-variant-numeric:normal;font-variant-east-asian:normal;font-variation-settings:&quot;opsz&quot;32,&quot;wght&quot;600"><tspan x="52.946" y="35.808" style="-inkscape-font-specification:&quot;Inter, @opsz=32,wght=600&quot;;font-variant-ligatures:normal;font-variant-caps:normal;font-variant-numeric:normal;font-variant-east-asian:normal;font-variation-settings:&quot;opsz&quot;32,&quot;wght&quot;600">14 April – 6 May 2025</tspan></text><text xml:space="preserve" x="118.958" y="8.609" fill="#666" stroke-width=".044" font-family="Inter" font-size="3.431" font-weight="400" style="line-height:1.25;-inkscape-font-specification:&quot;Inter, Normal&quot;;font-variant-ligatures:normal;font-variant-caps:normal;font-variant-numeric:normal;font-variant-east-asian:normal"><tspan x="118.958" y="8.609" style="-inkscape-font-specification:&quot;Inter, Normal&quot;;font-variant-ligatures:normal;font-variant-caps:normal;font-variant-numeric:normal;font-variant-east-asian:normal">https://jgibristol.github.io/scribe-hackathon</tspan></text><g stroke="#000" stroke-linejoin="bevel"><path fill="url(#b)" stroke-width="2.058" d="M538.76 340.59c-60.486 0-109.52 49.033-109.52 109.52a109.516 109.516 0 0 0 6.946 37.585c3.314-1.435 7.236-1.978 10.094-4.184 2.64-2.973.737-7.896 3.19-11.288 1.043-2.759 3.804-4.76 6.651-4.924a6.1 6.1 0 0 1 3.785 1.016c8.147 4.378 11.872 13.488 18.87 19.182 2.563 6.078 3.353 13.203.703 19.386-.872 2.72-2.516 8.574-6.189 6.957-2.052-3.762-2.982-8.472-6.963-10.934-4.265-3.399-10.933-4.27-15.272-.55-2.034 1.21-4.239 2.257-6.378 3.393a109.494 109.494 0 0 0 26.432 30.146c14.038 8.385 17.347-7.479 24.81-.605 3.732 1.792 7.688 1.652 11.736.712 4.339-5.733 8.432-11.69 11.355-17.468 6.273-12.402 9.233-22.26 22.92-28.266 13.072-6.158 6.844-22.25-1.729-29.445-7.996-6.866-6.481-17.553-7.082-26.893-.602-9.34-10.781-9.23-14.062-15.422-7.647-10.968-21.712-10.941-33.417-12-13.148-6.146-10.621-24.87-.26-32.558 12.968-12.731 31.094-20.023 49.323-20.703 14.178-.529 28.417 2.944 40.34 10.964 11.307 7.338 21.797 20.259 19.361 34.43-.608 10.295 9.81 4.68 6.35-2.403-2.215-16.664 18.194-6.886 12.806 4.922-2.594 12.884-18.288 14.251-24.362 24.514-5.733 9.57 5.394 9.902 11.206 5.4 8.721-4.122 21.83-5.971 27.595 3.798 8.579 12.046-8.422 18.096-17.05 11.199-9.248-6.309-22.623-4.969-31.338 1.764-8.478 6.692-11.634 20.814-2.507 28.463 7.857 10.399 22.957.673 30.96 10.09 6.654 13.508-.727 29.528-11.37 38.704-8.557 8.172-19.701 12.256-30.63 16.106-7.27 3.051-7.543 9.472-5.89 16.046 51.123-10.192 87.978-55.006 88.106-107.14a109.516 109.516 0 0 0-23.432-67.65c-3.544-.618-7.106-1.082-10.734-.855-5.153-.443-10.32 2.72-15.306.596-4.718-2.068-4.834-11.385.85-12.278 5.642 1.108 10.82 5.498 17.244 3.48a109.518 109.518 0 0 0-78.141-32.812zm1.557 25.831c-4.65-.046-9.447 1.058-13.36 2.584-2.349 1.46-7.941 3.887-4.356 6.694 3.585 2.808 13.28 6.354 10.772 13.692-.762 5.096.264 10.926 7.09 10.56 12.275-.91 19.319-17.784 13.586-27.877-3.385-4.07-8.464-5.6-13.733-5.653z" transform="matrix(.20014 0 0 .20014 -81.326 -53.665)"/><g fill="none" stroke-width="3.625"><path stroke-width=".7375062499999999" d="M8.615 46.734a8.137 8.137 0 0 0 1.417 1.118 8.204 8.204 0 0 0 5.35 1.158"/><path stroke-width=".7375062499999999" d="M15.303 48.95a25.856 25.856 0 0 0 6.628 4.73 25.88 25.88 0 0 0 9.403 2.616"/><path stroke-width=".7375062499999999" d="M31.293 56.357c.705-2.556 1.41-5.111 1.091-7.38-.32-2.27-1.663-4.252-3.007-6.235m-14.173 6.187c1.77-2.023 3.54-4.046 5.895-5.064 2.356-1.018 5.297-1.031 8.238-1.045m12.656 3.195c-2.263.014-4.525.027-6.661-.552-2.136-.58-4.146-1.75-6.156-2.922"/><path stroke-width=".7375062499999999" d="M18.438 34.635c2.036 1.078 4.072 2.156 5.929 3.514 1.856 1.357 3.533 2.994 5.21 4.63"/><path stroke-width=".7375062499999999" d="M8.855 32.88c1.504.625 3.008 1.25 4.645 1.563 1.637.313 3.407.313 5.177.313m9.262-18.366c-2.875 2.449-5.75 4.898-7.274 7.979-1.524 3.08-1.696 6.794-1.87 10.507"/><path stroke-width=".7375062499999999" d="M38.52 23.217c-2.875 2.302-5.75 4.605-9.076 6.521-3.328 1.917-7.108 3.447-10.887 4.977"/><path stroke-width=".7375062499999999" d="M45.708 36.192c-2.662-1.744-5.324-3.487-6.569-5.63-1.244-2.142-1.07-4.684-.898-7.226"/></g><g fill="#06c8d2" stroke-width="1.779" transform="matrix(.20014 0 0 .20014 -81.326 -53.665)"><circle cx="449.8" cy="501.32" r="7.867"/><circle cx="483.09" cy="512.6" r="7.867"/><circle cx="562.64" cy="549.28" r="7.867"/><circle cx="548.83" cy="479.54" r="7.867"/><circle cx="616.25" cy="497.93" r="7.867"/><circle cx="634.3" cy="448.85" r="7.867"/><circle cx="598.19" cy="385.09" r="7.867"/><circle cx="546.28" cy="351.23" r="7.867"/><circle cx="519.76" cy="376.06" r="7.867"/><circle cx="498.89" cy="440.38" r="7.867"/><circle cx="452.05" cy="433.05" r="7.867"/></g></g><text xml:space="preserve" x="68.786" y="43.344" stroke-width=".139" dy="-.768" font-family="Inter" font-size="4.485" font-weight="400" style="line-height:1.25;-inkscape-font-specification:&quot;Inter, Normal&quot;;font-variant-ligatures:normal;font-variant-caps:normal;font-variant-numeric:normal;font-variant-east-asian:normal;white-space:pre;inline-size:128.395" transform="translate(-15.875 14.795)"><tspan x="68.786" y="43.344">Working with expert partners from across life sciences, we will be </tspan><tspan x="68.786" y="48.95">uncovering how best to unite complex data sources relating to </tspan><tspan x="68.786" y="54.557">fragile settings including criminal activity, conflict-affected </tspan><tspan x="68.786" y="60.163">regions, climate vulnerability, and complex socio-political </tspan><tspan x="68.786" y="65.77">landscapes.</tspan></text><text xml:space="preserve" x="68.786" y="43.344" stroke-width=".139" dy="0 0 0 0 0 0 0 0 0 0 0 0 0 0 0 0 0 0 0 0 0 0 0 0 0 0 0 0 0 0 0 0 0 0 0 0 0 0 0 0 0 0 0 0 0 0 0 0 0 0 0 0 0 0 0 0 0 0 0 0 0 0 0 0 0 0 0 0 0 0 0 0 0 0 0 0 0 0 0 0 0 0 0 0 0 0 0 0 0 0 0 0 0 0 0 0 0 0 0 0 0 0 0 0 0 0 0 0 0 0 0 0 0 0 0 0 0 0 0" font-family="Inter" font-size="4.485" font-weight="400" style="line-height:1.25;-inkscape-font-specification:&quot;Inter, Normal&quot;;font-variant-ligatures:normal;font-variant-caps:normal;font-variant-numeric:normal;font-variant-east-asian:normal;white-space:pre;inline-size:128.395" transform="translate(-15.875 1.155)"><tspan x="68.786" y="43.344">A <tspan font-weight="700">biothreat datathon</tspan> to explore access, nature, and integration </tspan><tspan x="68.786" y="48.95">of data relating to <tspan font-weight="700">biothreats in complex environments</tspan>.</tspan></text><path d="M152.579 95.834c.21-.007.544-.027.728-.027 1.017 0 1.364.532 1.364 1.109 0 .643-.4.958-1.193.958h-.906v-2.04zm-.689 4.21c0 .526-.131.683-.813.683h-.19v.157h3.03c1.332 0 1.79-.918 1.79-1.574 0-.643-.452-1.154-1.232-1.384v-.02c.557-.098.944-.537.944-1.01 0-.4-.164-.682-.505-.918-.295-.216-.938-.321-1.666-.321-.157 0-.787.006-1.24.026-.242.006-.813.04-1.043.052v.158h.289c.577 0 .636.249.636.721zm.689-2.006h.892c.97 0 1.456.656 1.456 1.292 0 .643-.315 1.325-1.41 1.325-.695 0-.945-.223-.945-.853v-1.764zm11.518-2.152v-.157h-2.014v.157c.466.026.624.151.624.597v3.529c0 .538-.105.676-.578.708-.63-.032-.898-.282-1.35-.734l-.657-.656c-.387-.387-.636-.623-.944-.86.682-.196 1.102-.721 1.102-1.344 0-.846-.69-1.476-2.218-1.476-.537 0-.701.007-1.042.026-.342.013-.847.053-1.043.053v.157h.183c.48 0 .623.151.623.663v3.49c0 .557-.177.688-.662.688h-.138v.157h2.342v-.157h-.19c-.466 0-.663-.125-.663-.623v-1.397c.131.006.243.02.42.02.223 0 .354-.007.564-.02.197.13.492.374.853.734l.544.545c.715.715 1.023.944 2.368.892h1.876v-.158c-.57 0-.702-.164-.702-.656v-3.509c0-.557.177-.669.702-.669zm-6.12 2.676c-.19 0-.315.007-.511-.02v-2.715c.15-.02.255-.02.413-.02 1.279 0 1.627.597 1.627 1.365-.007.997-.61 1.39-1.529 1.39zm6.684 1.056c.177.735.755 1.168 1.397 1.168.558 0 1.142-.321 1.142-.977 0-1.194-2.657-1.555-2.657-3.005 0-.688.63-1.2 1.476-1.2.695 0 .84.21 1.128.21.066 0 .099-.02.151-.085h.131l.138 1.05h-.138c-.23-.598-.76-.978-1.331-.978-.545 0-.925.315-.925.78 0 1.175 2.656 1.49 2.656 3.018 0 .813-.721 1.417-1.692 1.417-.453 0-1.036-.223-1.148-.223a.193.193 0 0 0-.164.091h-.138l-.17-1.259h.144zm6.35.499c0 .446.15.603.656.603h.308v.158h-2.61v-.158h.308c.505 0 .655-.157.655-.603v-4.093h-1.443c-.328 0-.478.19-.603.918h-.15l.13-1.344h.158c.006.052.04.085.092.098.052.02.104.026.164.026h3.988c.118 0 .242-.026.255-.124h.158l.131 1.344h-.15c-.125-.728-.276-.918-.604-.918h-1.443zm7.484-1.68c0 1.175-.643 2.369-1.994 2.369-1.332 0-2.388-1.096-2.388-2.644 0-.997.577-2.355 2.04-2.355 1.365 0 2.342 1.09 2.342 2.63zm.774-.275c0-1.489-1.345-2.558-2.906-2.558-1.764 0-3.03 1.168-3.03 2.814 0 1.548 1.364 2.591 2.99 2.591 1.608 0 2.946-1.174 2.946-2.847zm3.85 2.716h-3.7v-.158h.276c.38 0 .525-.124.525-.544v-3.673c0-.44-.131-.623-.656-.623h-.118v-.158h2.44v.158h-.308c-.538 0-.682.059-.682.57v3.818c0 .223.091.308.334.308h1.22c.486 0 .636-.19 1.161-.912h.151zM155.557 89.819v.118c-.413.006-.558.17-.558.564v1.66c0 .76-.485 1.58-1.817 1.58-1.174 0-1.777-.669-1.777-1.548v-1.79c0-.394-.112-.453-.532-.46v-.118h1.581v.118h-.052c-.335 0-.486.092-.486.446v1.706c0 .826.486 1.325 1.398 1.325.695 0 1.397-.289 1.397-1.332v-1.43c0-.59-.092-.695-.604-.721v-.118Zm.807 3.286c0 .334.078.42.413.42v.118h-1.233v-.118c.269 0 .413-.145.413-.387v-1.292c0-.23-.026-.27-.184-.302l-.21-.046V91.4l.709-.256h.098v.479c.413-.256.755-.486 1.056-.486.42 0 .656.308.656.918 0 .82-.046.978-.046 1.214-.006.164.092.243.341.243h.138v.118h-1.318v-.118c.177-.007.282-.046.347-.118.118-.118.131-.565.131-1.384 0-.492-.242-.643-.485-.643-.197 0-.498.17-.82.393v1.345zm3.319.066c0 .216.118.347.44.347v.118h-1.365v-.118c.374 0 .511-.124.511-.446V91.84c0-.243-.032-.269-.19-.302l-.288-.052v-.099l.8-.275h.092zm-.25-3.444c.145 0 .27.105.27.236s-.125.236-.27.236c-.144 0-.262-.105-.262-.236s.112-.236.262-.236zm2.093 3.968-.892-2.04c-.092-.216-.17-.288-.27-.308l-.19-.033v-.111h1.253v.111c-.373.013-.492.06-.34.348l.649 1.528.63-1.41c.11-.25.052-.433-.394-.46v-.11h1.069v.11c-.236.047-.367.178-.485.447l-.847 1.928Zm2.027-1.777c.144-.57.446-.663.649-.663.295 0 .538.263.61.663zm1.777.164v-.145c-.203-.203-.183-.8-1.016-.8-.748 0-1.188.663-1.188 1.312 0 .715.466 1.26 1.07 1.26.446 0 .833-.309 1.095-.63l-.066-.072c-.236.275-.472.4-.78.4-.486 0-.932-.433-.932-1.07 0-.078.013-.163.027-.255zm1.187 1.108c0 .25.092.335.4.335h.237v.118h-1.456v-.118c.314-.007.413-.138.413-.46V91.65l-.413-.145V91.4l.701-.243h.125v.65h.013c.308-.506.38-.624.584-.624.072 0 .092.007.21.053.059.026.17.045.321.091l-.144.368a1.293 1.293 0 0 1-.328-.099.51.51 0 0 0-.216-.059c-.112 0-.178.072-.243.158a3.854 3.854 0 0 0-.197.308v1.187zm1.548-.17c.073.367.309.577.584.577.243 0 .433-.184.433-.407 0-.13-.033-.21-.197-.374-.433-.433-.918-.478-.918-.99 0-.407.322-.689.787-.689.164 0 .341.04.492.099l.013.557h-.105c-.046-.315-.242-.512-.492-.512-.203 0-.373.145-.373.342 0 .537 1.14.63 1.14 1.384 0 .4-.334.701-.76.701a.71.71 0 0 1-.269-.045c-.066-.02-.118-.04-.164-.04-.04 0-.072.026-.105.072h-.092l-.065-.688h.091zm2.657.15c0 .217.118.348.44.348v.118h-1.365v-.118c.374 0 .512-.124.512-.446V91.84c0-.243-.033-.269-.19-.302l-.289-.052v-.099l.8-.275h.092zm-.25-3.443c.152 0 .27.105.27.236s-.125.236-.27.236c-.144 0-.262-.105-.262-.236s.112-.236.263-.236zm2.447 1.482-.098.27h-.78v1.43c0 .386.275.517.406.517.138 0 .256-.105.374-.308l.098.092c-.144.321-.387.505-.669.505-.36 0-.623-.302-.623-.715v-1.522h-.282v-.098c.243-.118.446-.4.59-.78h.105v.61zm2.427.682c.184-.465.066-.557-.295-.57v-.112h1.017v.112c-.25.033-.394.203-.512.492l-1.043 2.604c-.183.452-.328.656-.538.656-.144 0-.249-.092-.249-.217 0-.249.354-.19.512-.34.065-.066.157-.23.21-.348l.183-.46-.95-2.02c-.119-.25-.23-.354-.486-.36v-.112h1.233v.111c-.374.007-.42.118-.295.374l.695 1.496Zm2.565.342c0-.532.374-.945.78-.945.519 0 .945.597.945 1.299 0 .616-.413.984-.774.984-.531-.007-.95-.597-.95-1.338Zm-.46.21c0 .721.585 1.272 1.346 1.272.728 0 1.298-.558 1.298-1.286s-.57-1.292-1.318-1.292c-.643 0-1.325.46-1.325 1.305zm4.428-.965h-.662v1.68c0 .281.111.36.453.36h.236v.118h-1.515v-.118c.354 0 .42-.079.42-.426v-1.62h-.453v-.105c.17-.04.321-.092.452-.164 0-.512.112-.899.473-1.26.301-.301.59-.433.872-.433.341 0 .63.197.63.29 0 .045-.118.294-.164.294-.086 0-.315-.301-.722-.301-.44 0-.682.347-.682.944v.466h.623z"/><g fill="#be2b31"><path d="M144.426 93.36c-.007-.478-.17-1.469-1.325-2.026 1.174.374 1.731 1.364 1.79 2.099 1.227.243 2.322.826 4.093.21l.007-.007s-2.329.02-3.306-.682c.505.02 1.082-.092 1.273-.38.203-.302.223-.617.721-.637.282-.006 1.233.06 1.332-1.331-.302.511-.637.728-1.129.597-.314-.079-.898-.322-1.311.17-.342.407-.709.623-1.293.558.236-.315 3.726-4.854 3.726-4.854s-4.473 3.594-4.723 3.798c-.046-.656.151-.899.414-1.187.216-.237.59-.558.288-1.227-.243-.544-.21-.872.446-1.397-.525.04-1.318.387-1.226 1.351.059.577-.355.63-.505.715-.387.216-.44.84-.453 1.332-.046-.158-.61-2.598-.813-3.385v6.56h.013c.767-.296 1.403-.342 1.98-.276Zm4.558.958c-2.951.971-3.961-1.082-6.546 0v6.566c2.814-1.043 2.919.886 6.546 0zm-5.359 3.359c-.013.006-.026.02-.026.033a5.69 5.69 0 0 0-.131.433c-.02.085-.046.091-.092.111-.04.013-.046.105-.006.112.105.032.085.105.078.118 0 .02-.033.21-.17.34-.072-.137-.086-.268-.099-.301-.013-.033-.02-.072-.013-.105 0-.033-.006-.17-.013-.203 0-.033.013-.066.026-.092a6.96 6.96 0 0 0 .296-.61c.032-.079.216-.158.255-.138.053.02.112.092.374.203.007.073.02.217.06.276-.06.026-.158.033-.158.033s-.217-.177-.263-.223c-.006-.007-.026-.02-.039-.02-.026.013-.052.02-.079.033zm2.493 2.132c-.046-.04-.118.026-.079.085.046.072.04.111.04.111s-.145.17-.342.197c-.02-.02.053-.282.125-.426.06-.118.085-.138.164-.177.079-.04.407-.204.505-.289a.493.493 0 0 0 .144-.21s.099.125.223.25c-.026.045-.649.439-.682.465-.02.026-.065.026-.098-.006zm1.43-.335c-.026.046-.302.518-.374.689-.04.092-.079.072-.105.079-.026.006-.098.02-.092.104.007.06-.006.086-.006.086h-.48c.02-.072.066-.158.257-.256a.58.58 0 0 0 .183-.177c.027-.04.19-.335.223-.407.027-.052.013-.138-.013-.19-.026-.046-.072-.131-.138-.177-.21-.17-.34-.302-.518-.65-.026-.059.007-.124-.301-.039-.742.197-1.273-.072-1.3-.092.027-.137.08-.262 0-.321a.963.963 0 0 1-.17.243c-.026.026-.059.02-.111.013a14.57 14.57 0 0 1-.492-.066c-.026-.006-.131.026-.072.144.013.02.091.17.183.302.046.072 0 .118.007.17.013.053.04.073.059.066.02-.006.098-.098.157-.033.06.066.099.256.112.447-.053.006-.125-.02-.19-.073-.06-.046-.118-.137-.184-.19-.066-.052-.098-.046-.144-.092-.04-.04-.086-.065-.099-.183-.013-.118-.183-.505-.216-.551-.04-.06.033-.184.065-.223.027-.033.086-.04.158-.053.105-.026.275-.098.34-.118-.229-.44.047-.702.08-.721.078-.374.223-.584.282-.663.137-.026.269-.046.334-.321.04-.151-.033-.322-.085-.368.026.145.02.302-.06.414-.11.164-.294.144-.327.144-.033 0-.072-.007-.105.026a1.283 1.283 0 0 1-.164.138c-.046.026-.04.046-.04.085-.006.04-.006.066-.052.072-.046.007-.111-.026-.15-.026-.066 0-.027-.04.012-.092.04-.052.046-.02.08-.026.045-.007.065-.026.104-.072.053-.079-.072-.092-.111-.053-.04.04-.092.112-.125.151-.033.04-.066.053-.079.007a.466.466 0 0 1-.026-.131c-.105-.027-.013-.145-.013-.145l.308-.374s-.065-.046-.02-.124c.027-.046.21-.263.342-.354a.559.559 0 0 0-.138-.223c.118.02.21.02.393.21.046.052.099.032.08-.014-.02-.052-.053-.091-.112-.17.57-.151.846.354.885.406a.618.618 0 0 0-.243.027c-.046.013-.039.033.027.04.19.019.216.032.275.045.079.092.118.308.118.321-.079.007-.183-.013-.288 0-.086.014-.053.053-.02.053.125.013.25.052.341.092.033.177.026.295.026.295s-.223-.026-.282-.02c-.059.007-.026.053.026.072.053.02.164.06.237.125 0 .052-.02.177-.046.243-.02.059-.007.118.098.137.275.053.512.092.938.086.748-.013.997.846.662 1.266-.157.196-.164.308-.15.38a.607.607 0 0 0 .288.426c.066.027-.02.145-.04.184zm.826-3.168c-.223.19.013.55-.196.833-.112.19-.433.387-.742.197.184-.066.361-.217.263-.505-.131-.374-.309-.38-.512-.696-.157-.242-.243-.872.341-1.075-.479.301-.197.846-.02 1.003-.308-.708.171-1.043.46-1.043.157 0 .354.013.465.223.164.295-.078.519-.203.525.203-.098.19-.282.125-.374-.125-.177-.46-.092-.525.118-.092.322.164.505.25.715.13-.183.445-.203.583-.006a.445.445 0 0 0-.289.085zm-4.932 2.184z"/><path d="M140.418 87.083v.709h-.833v-.709h-.761v.709h-.754v-.709h-.755v.709h-.767v-.709h-1.338v6.56c2.807.977 3.91-1.037 6.546 0v-6.56Zm-.138 2.204c-.269.532-.288 1.07-.243 1.345-.564-.144-.754 0-.754 0s.013-.603.997-1.345zm-2.755-.655c.223-.092.217-.04.204.02-.014.065-.053.17.072.143.34-.078.642-.288.669-.308v.413c-.053.027-.407.184-.715.204-.282.02-.158-.302-.158-.302-.026.013-.387.203-.688.184-.361-.02-.38-.223-.341-.27 0 .034.045.296.957-.084zm-1.148 4.263c1.2.335 2.04-.544 2.86-.656-.898-.013-1.384.36-1.679.394-.15-.112-.321-.387-.38-.682-.046-.25-.296-.29-.296-.29l-.039-.183s.708.105.833.118c.164.263.472.328.63.328 0 0 .006-.446 0-.472.033-.052.164-.092.164-.092l.006.558c.387 0 .682-.25.676-.48-.007-.268-.302-.498-.774-.484-.472.006-.643.242-.689.32-.557-.557-.302-1.239-.302-1.239s-.485.328-.045 1.155c-.46-.125-.834.118-.834.308 0 .177.138.315.414.321-.99.197-1.207-.367-.735-.669.223.04.223.04.374.072-.479-.478-.25-1.069.138-1.325.557-.098.833-.144.833-.144s.269-.387.505-.531a63.27 63.27 0 0 0 1.535-.203s-1.115 1.016-.046 2.098h.964s-.02.164-.052.322c-.092.006-.145.013-.184.013-.013.492-.308.82-.308.82s.557.072.931.295c-2.394-.466-2.59.984-4.5.328zm7.898 3.11s-.033-.014.026-.066c.007-.007.02.006.052.006.046 0 .073-.013.112-.059.059-.072-.066-.098-.105-.065-.046.039-.072.078-.111.111.006 0-.06.053.026.072zm-2.519 4.656c-2.086-1.37-3.693.696-6.546-.734v.957c3.627.886 3.732-1.043 6.546 0z"/><path d="M138.148 99.389c-1.817.013-2.938-1.089-2.938-1.089v.86c2.604 1.777 4.303-.237 6.546 1.278v-.23c-.531-.42-1.227-.839-3.608-.82Z"/><path d="M139.821 99.133c.243.052.453.105.636.157.472.158.912.394 1.306.69v-5.668c-.69-.289-1.266-.354-1.798-.315v3.044l-.708-.709-.709.709v-2.755c-.918.249-1.895.492-3.332.02v2.84s.748 1.587 2.768 1.738a17.7 17.7 0 0 1 1.837.249"/></g></svg>