<svg xmlns="http://www.w3.org/2000/svg" xmlns:xlink="http://www.w3.org/1999/xlink" width="290.001" height="286.852" preserveAspectRatio="xMidYMid" version="1.0" viewBox="0 0 217.501 215.139"><defs><linearGradient id="a"><stop offset="0" stop-color="#ffc94b"/><stop offset="1" stop-color="#ab026c"/></linearGradient><linearGradient xlink:href="#a" id="b" x1="491.54" x2="340.73" y1="313.6" y2="457.63" gradientTransform="translate(110.05 56.115)" gradientUnits="userSpaceOnUse"/></defs><g stroke="#000" stroke-linejoin="bevel"><path fill="url(#b)" stroke-width="2.058" d="M538.76 340.59c-60.486 0-109.52 49.033-109.52 109.52a109.516 109.516 0 0 0 6.946 37.585c3.314-1.435 7.236-1.978 10.094-4.184 2.64-2.973.737-7.896 3.19-11.288 1.043-2.759 3.804-4.76 6.651-4.924a6.1 6.1 0 0 1 3.785 1.016c8.147 4.378 11.872 13.488 18.87 19.182 2.563 6.078 3.353 13.203.703 19.386-.872 2.72-2.516 8.574-6.189 6.957-2.052-3.762-2.982-8.472-6.963-10.934-4.265-3.399-10.933-4.27-15.272-.55-2.034 1.21-4.239 2.257-6.378 3.393a109.494 109.494 0 0 0 26.432 30.146c14.038 8.385 17.347-7.479 24.81-.605 3.732 1.792 7.688 1.652 11.736.712 4.339-5.733 8.432-11.69 11.355-17.468 6.273-12.402 9.233-22.26 22.92-28.266 13.072-6.158 6.844-22.25-1.729-29.445-7.996-6.866-6.481-17.553-7.082-26.893-.602-9.34-10.781-9.23-14.062-15.422-7.647-10.968-21.712-10.941-33.417-12-13.148-6.146-10.621-24.87-.26-32.558 12.968-12.731 31.094-20.023 49.323-20.703 14.178-.529 28.417 2.944 40.34 10.964 11.307 7.338 21.797 20.259 19.361 34.43-.608 10.295 9.81 4.68 6.35-2.403-2.215-16.664 18.194-6.886 12.806 4.922-2.594 12.884-18.288 14.251-24.362 24.514-5.733 9.57 5.394 9.902 11.206 5.4 8.721-4.122 21.83-5.971 27.595 3.798 8.579 12.046-8.422 18.096-17.05 11.199-9.248-6.309-22.623-4.969-31.338 1.764-8.478 6.692-11.634 20.814-2.507 28.463 7.857 10.399 22.957.673 30.96 10.09 6.654 13.508-.727 29.528-11.37 38.704-8.557 8.172-19.701 12.256-30.63 16.106-7.27 3.051-7.543 9.472-5.89 16.046 51.123-10.192 87.978-55.006 88.106-107.14a109.516 109.516 0 0 0-23.432-67.65c-3.544-.618-7.106-1.082-10.734-.855-5.153-.443-10.32 2.72-15.306.596-4.718-2.068-4.834-11.385.85-12.278 5.642 1.108 10.82 5.498 17.244 3.48a109.518 109.518 0 0 0-78.141-32.812zm1.557 25.831c-4.65-.046-9.447 1.058-13.36 2.584-2.349 1.46-7.941 3.887-4.356 6.694 3.585 2.808 13.28 6.354 10.772 13.692-.762 5.096.264 10.926 7.09 10.56 12.275-.91 19.319-17.784 13.586-27.877-3.385-4.07-8.464-5.6-13.733-5.653z" transform="translate(-421.244 -334.031) scale(.98373)"/><g fill="none" stroke-width="3.685"><path stroke-width="3.62504505" d="M20.825 159.437a39.992 39.992 0 0 0 6.966 5.495c7.767 4.832 17.227 6.88 26.296 5.691"/><path stroke-width="3.62504505" d="M53.701 170.327a127.084 127.084 0 0 0 32.576 23.254 127.2 127.2 0 0 0 46.216 12.854"/><path stroke-width="3.62504505" d="M132.291 206.735c3.467-12.56 6.934-25.12 5.364-36.272-1.57-11.153-8.177-20.9-14.783-30.646M53.21 170.229c8.7-9.943 17.4-19.887 28.978-24.89 11.578-5.005 26.034-5.07 40.491-5.136M184.881 155.905c-11.12.066-22.24.131-32.739-2.714-10.498-2.846-20.376-8.602-30.254-14.359"/><path stroke-width="3.62504505" d="M69.106 99.97c10.009 5.3 20.017 10.597 29.142 17.27s17.368 14.719 25.61 22.764"/><path stroke-width="3.62504505" d="M22.005 91.343c7.392 3.075 14.784 6.15 22.83 7.686 8.046 1.538 16.746 1.538 25.446 1.538M115.804 10.294C101.674 22.33 87.545 34.367 80.055 49.51c-7.49 15.144-8.34 33.394-9.19 51.645"/><path stroke-width="3.62504505" d="M167.814 43.849c-14.13 11.317-28.259 22.633-44.613 32.053-16.354 9.42-34.932 16.941-53.51 24.464"/><path stroke-width="3.62504505" d="M203.14 107.624c-13.083-8.57-26.166-17.139-32.283-27.67-6.116-10.532-5.265-23.027-4.415-35.52"/></g><g fill="#06c8d2" stroke-width="1.779" transform="translate(-421.244 -334.031) scale(.98373)"><circle cx="449.8" cy="501.32" r="7.867"/><circle cx="483.09" cy="512.6" r="7.867"/><circle cx="562.64" cy="549.28" r="7.867"/><circle cx="548.83" cy="479.54" r="7.867"/><circle cx="616.25" cy="497.93" r="7.867"/><circle cx="634.3" cy="448.85" r="7.867"/><circle cx="598.19" cy="385.09" r="7.867"/><circle cx="546.28" cy="351.23" r="7.867"/><circle cx="519.76" cy="376.06" r="7.867"/><circle cx="498.89" cy="440.38" r="7.867"/><circle cx="452.05" cy="433.05" r="7.867"/></g></g></svg>